<mxfile host="app.diagrams.net" modified="2024-07-05T09:41:16.228Z" agent="Mozilla/5.0 (Windows NT 10.0; Win64; x64) AppleWebKit/537.36 (KHTML, like Gecko) Chrome/126.0.0.0 Safari/537.36" etag="yGwf9Opwx2yCN7tigyrI" version="24.6.4" type="github">
  <diagram name="Page-1" id="TDPUj_1zRNiJJpnWiJ5l">
    <mxGraphModel dx="1434" dy="738" grid="1" gridSize="10" guides="1" tooltips="1" connect="1" arrows="1" fold="1" page="1" pageScale="1" pageWidth="850" pageHeight="1100" math="0" shadow="0">
      <root>
        <mxCell id="0" />
        <mxCell id="1" parent="0" />
        <mxCell id="DVa73hEYFQp1gnujyWLR-22" style="edgeStyle=orthogonalEdgeStyle;rounded=0;orthogonalLoop=1;jettySize=auto;html=1;" edge="1" parent="1" source="DVa73hEYFQp1gnujyWLR-1" target="DVa73hEYFQp1gnujyWLR-12">
          <mxGeometry relative="1" as="geometry" />
        </mxCell>
        <mxCell id="DVa73hEYFQp1gnujyWLR-1" value="" style="ellipse;whiteSpace=wrap;html=1;" vertex="1" parent="1">
          <mxGeometry x="340" y="70" width="120" height="80" as="geometry" />
        </mxCell>
        <mxCell id="DVa73hEYFQp1gnujyWLR-5" value="Start" style="text;html=1;align=center;verticalAlign=middle;whiteSpace=wrap;rounded=0;" vertex="1" parent="1">
          <mxGeometry x="370" y="95" width="60" height="30" as="geometry" />
        </mxCell>
        <mxCell id="DVa73hEYFQp1gnujyWLR-10" value="" style="shape=parallelogram;perimeter=parallelogramPerimeter;whiteSpace=wrap;html=1;fixedSize=1;" vertex="1" parent="1">
          <mxGeometry x="315" y="190" width="170" height="60" as="geometry" />
        </mxCell>
        <mxCell id="DVa73hEYFQp1gnujyWLR-12" value="Print = &quot;Hello! Welcome to Video Game Trivia!&amp;nbsp; &amp;nbsp;" style="text;html=1;align=center;verticalAlign=middle;whiteSpace=wrap;rounded=0;" vertex="1" parent="1">
          <mxGeometry x="345" y="187.5" width="110" height="65" as="geometry" />
        </mxCell>
        <mxCell id="DVa73hEYFQp1gnujyWLR-25" style="edgeStyle=orthogonalEdgeStyle;rounded=0;orthogonalLoop=1;jettySize=auto;html=1;entryX=0.526;entryY=-0.083;entryDx=0;entryDy=0;entryPerimeter=0;" edge="1" parent="1" source="DVa73hEYFQp1gnujyWLR-10">
          <mxGeometry relative="1" as="geometry">
            <mxPoint x="399.9100000000001" y="285.02" as="targetPoint" />
          </mxGeometry>
        </mxCell>
        <mxCell id="DVa73hEYFQp1gnujyWLR-37" style="edgeStyle=orthogonalEdgeStyle;rounded=0;orthogonalLoop=1;jettySize=auto;html=1;" edge="1" parent="1" source="DVa73hEYFQp1gnujyWLR-30">
          <mxGeometry relative="1" as="geometry">
            <mxPoint x="170" y="510" as="targetPoint" />
            <Array as="points">
              <mxPoint x="171" y="445" />
            </Array>
          </mxGeometry>
        </mxCell>
        <mxCell id="DVa73hEYFQp1gnujyWLR-30" value="" style="rounded=0;whiteSpace=wrap;html=1;" vertex="1" parent="1">
          <mxGeometry x="317.5" y="415" width="175" height="60" as="geometry" />
        </mxCell>
        <mxCell id="DVa73hEYFQp1gnujyWLR-31" value="if playing !=&quot;yes&quot;" style="text;html=1;align=center;verticalAlign=middle;whiteSpace=wrap;rounded=0;" vertex="1" parent="1">
          <mxGeometry x="375" y="430" width="60" height="30" as="geometry" />
        </mxCell>
        <mxCell id="DVa73hEYFQp1gnujyWLR-39" style="edgeStyle=orthogonalEdgeStyle;rounded=0;orthogonalLoop=1;jettySize=auto;html=1;exitX=1;exitY=0.5;exitDx=0;exitDy=0;entryX=0;entryY=0.5;entryDx=0;entryDy=0;" edge="1" parent="1" target="DVa73hEYFQp1gnujyWLR-38">
          <mxGeometry relative="1" as="geometry">
            <mxPoint x="240" y="550" as="sourcePoint" />
          </mxGeometry>
        </mxCell>
        <mxCell id="DVa73hEYFQp1gnujyWLR-38" value="" style="rounded=0;whiteSpace=wrap;html=1;" vertex="1" parent="1">
          <mxGeometry x="330" y="520" width="120" height="60" as="geometry" />
        </mxCell>
        <mxCell id="DVa73hEYFQp1gnujyWLR-40" value="score = 0" style="text;html=1;align=center;verticalAlign=middle;whiteSpace=wrap;rounded=0;" vertex="1" parent="1">
          <mxGeometry x="360" y="535" width="60" height="30" as="geometry" />
        </mxCell>
        <mxCell id="DVa73hEYFQp1gnujyWLR-50" style="edgeStyle=orthogonalEdgeStyle;rounded=0;orthogonalLoop=1;jettySize=auto;html=1;entryX=0;entryY=0.5;entryDx=0;entryDy=0;" edge="1" parent="1" target="DVa73hEYFQp1gnujyWLR-44">
          <mxGeometry relative="1" as="geometry">
            <mxPoint x="280" y="660" as="sourcePoint" />
          </mxGeometry>
        </mxCell>
        <mxCell id="DVa73hEYFQp1gnujyWLR-62" style="edgeStyle=orthogonalEdgeStyle;rounded=0;orthogonalLoop=1;jettySize=auto;html=1;" edge="1" parent="1" source="DVa73hEYFQp1gnujyWLR-44" target="DVa73hEYFQp1gnujyWLR-63">
          <mxGeometry relative="1" as="geometry">
            <mxPoint x="540" y="660" as="targetPoint" />
          </mxGeometry>
        </mxCell>
        <mxCell id="DVa73hEYFQp1gnujyWLR-44" value="" style="rounded=0;whiteSpace=wrap;html=1;" vertex="1" parent="1">
          <mxGeometry x="322.5" y="600" width="155" height="60" as="geometry" />
        </mxCell>
        <mxCell id="DVa73hEYFQp1gnujyWLR-45" value="if question == &quot; 1996&quot;:" style="text;html=1;align=center;verticalAlign=middle;whiteSpace=wrap;rounded=0;" vertex="1" parent="1">
          <mxGeometry x="362.5" y="620" width="75" height="30" as="geometry" />
        </mxCell>
        <mxCell id="DVa73hEYFQp1gnujyWLR-55" style="edgeStyle=orthogonalEdgeStyle;rounded=0;orthogonalLoop=1;jettySize=auto;html=1;exitX=0.5;exitY=1;exitDx=0;exitDy=0;entryX=0.5;entryY=0;entryDx=0;entryDy=0;" edge="1" parent="1" source="DVa73hEYFQp1gnujyWLR-53">
          <mxGeometry relative="1" as="geometry">
            <mxPoint x="185" y="620" as="targetPoint" />
          </mxGeometry>
        </mxCell>
        <mxCell id="DVa73hEYFQp1gnujyWLR-53" value="" style="shape=parallelogram;perimeter=parallelogramPerimeter;whiteSpace=wrap;html=1;fixedSize=1;" vertex="1" parent="1">
          <mxGeometry x="120" y="510" width="130" height="60" as="geometry" />
        </mxCell>
        <mxCell id="DVa73hEYFQp1gnujyWLR-54" value="input(&quot;Question 1:&quot;)" style="text;html=1;align=center;verticalAlign=middle;whiteSpace=wrap;rounded=0;" vertex="1" parent="1">
          <mxGeometry x="155" y="525" width="60" height="30" as="geometry" />
        </mxCell>
        <mxCell id="DVa73hEYFQp1gnujyWLR-56" value="" style="shape=parallelogram;perimeter=parallelogramPerimeter;whiteSpace=wrap;html=1;fixedSize=1;" vertex="1" parent="1">
          <mxGeometry x="100" y="620" width="190" height="70" as="geometry" />
        </mxCell>
        <mxCell id="DVa73hEYFQp1gnujyWLR-57" value="question = input(&quot;What year was the nintendo 64 released?&quot;)" style="text;html=1;align=center;verticalAlign=middle;whiteSpace=wrap;rounded=0;" vertex="1" parent="1">
          <mxGeometry x="140" y="640" width="120" height="30" as="geometry" />
        </mxCell>
        <mxCell id="DVa73hEYFQp1gnujyWLR-61" style="edgeStyle=orthogonalEdgeStyle;rounded=0;orthogonalLoop=1;jettySize=auto;html=1;exitX=0.5;exitY=1;exitDx=0;exitDy=0;" edge="1" parent="1" source="DVa73hEYFQp1gnujyWLR-58">
          <mxGeometry relative="1" as="geometry">
            <mxPoint x="406" y="410" as="targetPoint" />
          </mxGeometry>
        </mxCell>
        <mxCell id="DVa73hEYFQp1gnujyWLR-58" value="" style="shape=parallelogram;perimeter=parallelogramPerimeter;whiteSpace=wrap;html=1;fixedSize=1;" vertex="1" parent="1">
          <mxGeometry x="290" y="290" width="232.5" height="60" as="geometry" />
        </mxCell>
        <mxCell id="DVa73hEYFQp1gnujyWLR-60" value="input = (&quot;Are you ready to begin? Type &#39;yes&#39; to start &quot;)" style="text;html=1;align=center;verticalAlign=middle;whiteSpace=wrap;rounded=0;" vertex="1" parent="1">
          <mxGeometry x="336.25" y="305" width="152.5" height="30" as="geometry" />
        </mxCell>
        <mxCell id="DVa73hEYFQp1gnujyWLR-63" value="" style="shape=parallelogram;perimeter=parallelogramPerimeter;whiteSpace=wrap;html=1;fixedSize=1;" vertex="1" parent="1">
          <mxGeometry x="560" y="630" width="150" height="60" as="geometry" />
        </mxCell>
        <mxCell id="DVa73hEYFQp1gnujyWLR-64" value="&lt;div&gt;&amp;nbsp; &amp;nbsp; print = &quot;Correct! &quot;&lt;/div&gt;&lt;div&gt;&amp;nbsp; &amp;nbsp; score += 1&lt;/div&gt;" style="text;html=1;align=center;verticalAlign=middle;whiteSpace=wrap;rounded=0;" vertex="1" parent="1">
          <mxGeometry x="575" y="645" width="120" height="30" as="geometry" />
        </mxCell>
        <mxCell id="DVa73hEYFQp1gnujyWLR-67" value="" style="shape=parallelogram;perimeter=parallelogramPerimeter;whiteSpace=wrap;html=1;fixedSize=1;" vertex="1" parent="1">
          <mxGeometry x="317.5" y="710" width="180" height="60" as="geometry" />
        </mxCell>
        <mxCell id="DVa73hEYFQp1gnujyWLR-68" value="&lt;div&gt;else:&lt;/div&gt;&lt;div&gt;&amp;nbsp; &amp;nbsp; print(&quot;Incorrect, sorry gamer :(&quot;)&lt;/div&gt;" style="text;html=1;align=center;verticalAlign=middle;whiteSpace=wrap;rounded=0;" vertex="1" parent="1">
          <mxGeometry x="346.25" y="725" width="120" height="30" as="geometry" />
        </mxCell>
        <mxCell id="DVa73hEYFQp1gnujyWLR-69" style="edgeStyle=orthogonalEdgeStyle;rounded=0;orthogonalLoop=1;jettySize=auto;html=1;exitX=1;exitY=0.75;exitDx=0;exitDy=0;entryX=0.564;entryY=-0.083;entryDx=0;entryDy=0;entryPerimeter=0;" edge="1" parent="1" source="DVa73hEYFQp1gnujyWLR-56" target="DVa73hEYFQp1gnujyWLR-67">
          <mxGeometry relative="1" as="geometry" />
        </mxCell>
      </root>
    </mxGraphModel>
  </diagram>
</mxfile>
